<?xml version="1.0" encoding="UTF-8" standalone="no"?>
<svg
   xmlns:dc="http://purl.org/dc/elements/1.1/"
   xmlns:cc="http://creativecommons.org/ns#"
   xmlns:rdf="http://www.w3.org/1999/02/22-rdf-syntax-ns#"
   xmlns:svg="http://www.w3.org/2000/svg"
   xmlns="http://www.w3.org/2000/svg"
   xmlns:sodipodi="http://sodipodi.sourceforge.net/DTD/sodipodi-0.dtd"
   xmlns:inkscape="http://www.inkscape.org/namespaces/inkscape"
   width="50"
   height="50"
   viewBox="0 0 50 50"
   fill="none"
   version="1.1"
   id="svg885"
   sodipodi:docname="dolar.svg"
   inkscape:version="0.92.5 (2060ec1f9f, 2020-04-08)">
  <metadata
     id="metadata891">
    <rdf:RDF>
      <cc:Work
         rdf:about="">
        <dc:format>image/svg+xml</dc:format>
        <dc:type
           rdf:resource="http://purl.org/dc/dcmitype/StillImage" />
        <dc:title></dc:title>
      </cc:Work>
    </rdf:RDF>
  </metadata>
  <defs
     id="defs889" />
  <sodipodi:namedview
     pagecolor="#ffffff"
     bordercolor="#666666"
     borderopacity="1"
     objecttolerance="10"
     gridtolerance="10"
     guidetolerance="10"
     inkscape:pageopacity="0"
     inkscape:pageshadow="2"
     inkscape:window-width="1920"
     inkscape:window-height="1017"
     id="namedview887"
     showgrid="false"
     inkscape:zoom="8.38"
     inkscape:cx="-5.6248951"
     inkscape:cy="23.715134"
     inkscape:window-x="0"
     inkscape:window-y="0"
     inkscape:window-maximized="1"
     inkscape:current-layer="svg885" />
  <circle
     cx="25"
     cy="25"
     r="25"
     id="circle883"
     fill="#EDEDED" />
  <path
     inkscape:connector-curvature="0"
     style="stroke:#6b728e;stroke-width:4.5;stroke-linecap:round;stroke-linejoin:round"
     d="m 31.502834,13.630668 h -5.625 m 0,0 h -1.875 c -1.49184,0 -2.92259,0.59263 -3.97748,1.64752 -1.05489,1.0549 -1.64752,2.48568 -1.64752,3.97748 0,1.4918 0.59263,2.9226 1.64752,3.9775 1.05489,1.0549 2.48564,1.6475 3.97748,1.6475 h 1.875 c 1.4918,0 2.9226,0.5926 3.9775,1.6475 1.0549,1.0549 1.6475,2.4857 1.6475,3.9775 0,1.4918 -0.5926,2.9226 -1.6475,3.9775 -1.0549,1.0549 -2.4857,1.6475 -3.9775,1.6475 h -1.875 m 1.875,-22.5 v -3.75 m -1.875,26.25 h -5.625 m 5.625,0 v 3.75"
     id="path922" />
</svg>
