<?xml version="1.0" encoding="UTF-8" standalone="no"?>
<svg
   xmlns:dc="http://purl.org/dc/elements/1.1/"
   xmlns:cc="http://creativecommons.org/ns#"
   xmlns:rdf="http://www.w3.org/1999/02/22-rdf-syntax-ns#"
   xmlns:svg="http://www.w3.org/2000/svg"
   xmlns="http://www.w3.org/2000/svg"
   xmlns:sodipodi="http://sodipodi.sourceforge.net/DTD/sodipodi-0.dtd"
   xmlns:inkscape="http://www.inkscape.org/namespaces/inkscape"
   width="50"
   height="50"
   viewBox="0 0 50 50"
   fill="none"
   version="1.1"
   id="svg885"
   sodipodi:docname="euro.svg"
   inkscape:version="0.92.5 (2060ec1f9f, 2020-04-08)">
  <metadata
     id="metadata891">
    <rdf:RDF>
      <cc:Work
         rdf:about="">
        <dc:format>image/svg+xml</dc:format>
        <dc:type
           rdf:resource="http://purl.org/dc/dcmitype/StillImage" />
        <dc:title></dc:title>
      </cc:Work>
    </rdf:RDF>
  </metadata>
  <defs
     id="defs889" />
  <sodipodi:namedview
     pagecolor="#ffffff"
     bordercolor="#666666"
     borderopacity="1"
     objecttolerance="10"
     gridtolerance="10"
     guidetolerance="10"
     inkscape:pageopacity="0"
     inkscape:pageshadow="2"
     inkscape:window-width="1920"
     inkscape:window-height="1017"
     id="namedview887"
     showgrid="false"
     inkscape:zoom="5.9255548"
     inkscape:cx="0.90297094"
     inkscape:cy="6.3650667"
     inkscape:window-x="0"
     inkscape:window-y="0"
     inkscape:window-maximized="1"
     inkscape:current-layer="svg885" />
  <circle
     cx="25"
     cy="25"
     r="25"
     id="circle883"
     fill="none" />
  <path
     inkscape:connector-curvature="0"
     style="fill:#6b728e"
     d="m 29.233699,40.656325 c -3.2778,0 -6.1944,-0.9306 -8.75,-2.7917 -2.55555,-1.8611 -4.36111,-4.2639 -5.41667,-7.2083 h -4.16666 c -0.47223,0 -0.867782,-0.16 -1.1866706,-0.48 -0.32,-0.3189 -0.48,-0.7144 -0.48,-1.1867 0,-0.4722 0.16,-0.8683 0.48,-1.1883 0.3188886,-0.3189 0.7144406,-0.4783 1.1866706,-0.4783 h 3.41666 c -0.05555,-0.3056 -0.08333,-0.5834 -0.08333,-0.8334 v -1.6666 c 0,-0.25 0.02778,-0.5278 0.08333,-0.8334 h -3.41666 c -0.47223,0 -0.867782,-0.16 -1.1866706,-0.48 -0.32,-0.3189 -0.48,-0.7144 -0.48,-1.1866 0,-0.4723 0.16,-0.8684 0.48,-1.1884 0.3188886,-0.3189 0.7144406,-0.4783 1.1866706,-0.4783 h 4.16666 c 1.05556,-2.94444 2.86112,-5.34722 5.41667,-7.20833 2.5556,-1.861114 5.4722,-2.79167 8.75,-2.79167 1.5278,0 2.9794,0.208333 4.355,0.625 1.3744,0.41667 2.6589,1.01389 3.8533,1.79167 0.5,0.33333 0.7711,0.80555 0.8134,1.41666 0.0411,0.61111 -0.1745,1.15278 -0.6467,1.625 -0.3333,0.33334 -0.7567,0.52778 -1.27,0.58334 -0.5144,0.05555 -1.0078,-0.05556 -1.48,-0.33334 -0.8333,-0.47222 -1.7222,-0.84722 -2.6667,-1.125 -0.9444,-0.27777 -1.9305,-0.41666 -2.9583,-0.41666 -2.0833,0 -3.9789,0.535 -5.6867,1.605 -1.7089,1.06889 -3.0077,2.47833 -3.8966,4.22833 h 7.9166 c 0.4723,0 0.8684,0.1594 1.1884,0.4783 0.3189,0.32 0.4783,0.7161 0.4783,1.1884 0,0.4722 -0.1594,0.8677 -0.4783,1.1866 -0.32,0.32 -0.7161,0.48 -1.1884,0.48 h -8.99997 c -0.05555,0.3056 -0.09722,0.5834 -0.125,0.8334 -0.02777,0.25 -0.04166,0.5277 -0.04166,0.8333 0,0.3056 0.01389,0.5833 0.04166,0.8333 0.02778,0.25 0.06945,0.5278 0.125,0.8334 h 8.99997 c 0.4723,0 0.8684,0.1594 1.1884,0.4783 0.3189,0.32 0.4783,0.7161 0.4783,1.1883 0,0.4723 -0.1594,0.8678 -0.4783,1.1867 -0.32,0.32 -0.7161,0.48 -1.1884,0.48 h -7.9166 c 0.8889,1.75 2.1877,3.16 3.8966,4.23 1.7078,1.0689 3.6034,1.6033 5.6867,1.6033 1,0 1.9861,-0.1389 2.9583,-0.4166 0.9723,-0.2778 1.8611,-0.6528 2.6667,-1.125 0.4722,-0.2778 0.9583,-0.3961 1.4583,-0.355 0.5,0.0422 0.9306,0.2439 1.2917,0.605 0.4722,0.4722 0.6878,1.0139 0.6467,1.625 -0.0423,0.6111 -0.3134,1.0833 -0.8134,1.4166 -1.1944,0.7778 -2.4789,1.375 -3.8533,1.7917 -1.3756,0.4167 -2.8272,0.625 -4.355,0.625 z"
     id="path2187" />
</svg>
