<?xml version="1.0" encoding="UTF-8" standalone="no"?>
<svg
   xmlns:dc="http://purl.org/dc/elements/1.1/"
   xmlns:cc="http://creativecommons.org/ns#"
   xmlns:rdf="http://www.w3.org/1999/02/22-rdf-syntax-ns#"
   xmlns:svg="http://www.w3.org/2000/svg"
   xmlns="http://www.w3.org/2000/svg"
   xmlns:sodipodi="http://sodipodi.sourceforge.net/DTD/sodipodi-0.dtd"
   xmlns:inkscape="http://www.inkscape.org/namespaces/inkscape"
   width="50"
   height="50"
   viewBox="0 0 50 50"
   fill="none"
   version="1.1"
   id="svg885"
   sodipodi:docname="real.svg"
   inkscape:version="0.92.5 (2060ec1f9f, 2020-04-08)">
  <metadata
     id="metadata891">
    <rdf:RDF>
      <cc:Work
         rdf:about="">
        <dc:format>image/svg+xml</dc:format>
        <dc:type
           rdf:resource="http://purl.org/dc/dcmitype/StillImage" />
        <dc:title></dc:title>
      </cc:Work>
    </rdf:RDF>
  </metadata>
  <defs
     id="defs889" />
  <sodipodi:namedview
     pagecolor="#ffffff"
     bordercolor="#666666"
     borderopacity="1"
     objecttolerance="10"
     gridtolerance="10"
     guidetolerance="10"
     inkscape:pageopacity="0"
     inkscape:pageshadow="2"
     inkscape:window-width="1920"
     inkscape:window-height="1017"
     id="namedview887"
     showgrid="false"
     inkscape:zoom="8.38"
     inkscape:cx="10.561113"
     inkscape:cy="23.224931"
     inkscape:window-x="0"
     inkscape:window-y="0"
     inkscape:window-maximized="1"
     inkscape:current-layer="svg885" />
  <circle
     cx="25"
     cy="25"
     r="25"
     id="circle883"
     fill="#EDEDED" />
  <path
     d="m 12.022221,36.906324 v -11 m 0,0 V 14.906325 h 5.5 c 1.45869,0 2.8576,0.579459 3.8891,1.610909 1.0314,1.03145 1.6109,2.4304 1.6109,3.88909 0,1.45869 -0.5795,2.8576 -1.6109,3.8891 -1.0315,1.0314 -2.43041,1.6109 -3.8891,1.6109 z m 0,0 c 10.0833,0 9.1667,7.3333 11,11"
     id="path993"
     inkscape:connector-curvature="0"
     style="fill:none;stroke:#6b728e;stroke-width:3.99000001;stroke-linecap:round;stroke-linejoin:round"
     inkscape:transform-center-x="8.7307622"
     inkscape:transform-center-y="0.36933224" />
  <path
     inkscape:connector-curvature="0"
     style="fill:none;stroke:#6b728e;stroke-width:3.83901739;stroke-linecap:round;stroke-linejoin:round"
     d="m 39.128331,17.078514 h -4.370922 m 0,0 h -1.456973 c -1.159237,0 -2.271004,0.45187 -3.090708,1.256192 -0.819712,0.804322 -1.280213,1.895229 -1.280213,3.032713 0,1.137513 0.460501,2.22842 1.280213,3.032732 0.819704,0.804313 1.931471,1.256173 3.090708,1.256173 h 1.456973 c 1.159237,0 2.271035,0.45186 3.090729,1.256173 0.819692,0.804312 1.280193,1.895219 1.280193,3.032732 0,1.137513 -0.460501,2.228419 -1.280193,3.032732 -0.819694,0.804313 -1.931492,1.256173 -3.090729,1.256173 h -1.456973 m 1.456973,-17.15562 v -2.859269 m -1.456973,20.014889 h -4.370921 m 4.370921,0 v 2.859269"
     id="path1003"
     inkscape:transform-center-x="-7.7759398"
     inkscape:transform-center-y="0.11933174" />
</svg>
