<svg width="45" height="32" viewBox="0 0 45 32" fill="none" xmlns="http://www.w3.org/2000/svg">
<path d="M26.6906 31.139C26.1166 30.565 25.8411 29.8714 25.864 29.0583C25.8889 28.2451 26.1883 27.5516 26.7623 26.9776L34.87 18.87H2.86996C2.0568 18.87 1.37471 18.5944 0.823678 18.0434C0.27456 17.4943 0 16.8132 0 16C0 15.1868 0.27456 14.5048 0.823678 13.9537C1.37471 13.4046 2.0568 13.13 2.86996 13.13H34.87L26.6906 4.95067C26.1166 4.37668 25.8296 3.69459 25.8296 2.90439C25.8296 2.11611 26.1166 1.43498 26.6906 0.860986C27.2646 0.286995 27.9467 0 28.7369 0C29.5251 0 30.2063 0.286995 30.7803 0.860986L43.9103 13.991C44.1973 14.278 44.4011 14.5889 44.5216 14.9238C44.6402 15.2586 44.6996 15.6173 44.6996 16C44.6996 16.3827 44.6402 16.7414 44.5216 17.0762C44.4011 17.4111 44.1973 17.722 43.9103 18.009L30.7085 31.2108C30.1824 31.7369 29.5251 32 28.7369 32C27.9467 32 27.2646 31.713 26.6906 31.139Z" fill="#EDEDED"/>
</svg>
